<svg xmlns="http://www.w3.org/2000/svg" xmlns:xlink="http://www.w3.org/1999/xlink" viewBox="0 0 597.34 597.34"><defs><style>.cls-1{fill:none;}.cls-2{fill:#ea5a27;}.cls-3{fill:#efc43a;}.cls-4{opacity:0.7;}.cls-5{fill:#eaeaea;}.cls-6{clip-path:url(#clip-path);}.cls-7{fill:#1a8e38;}.cls-10,.cls-11,.cls-8,.cls-9{isolation:isolate;}.cls-10,.cls-11,.cls-9{font-size:90px;fill:#fff;font-family:ArialMT, Arial;}.cls-9{letter-spacing:-0.06em;}.cls-11{letter-spacing:-0.02em;}</style><clipPath id="clip-path"><circle class="cls-1" cx="298.67" cy="298.67" r="172.89"/></clipPath></defs><g id="Layer_2" data-name="Layer 2"><g id="Bildmarke_Neu_09_2022" data-name="Bildmarke Neu 09 2022"><g id="Haken_neu" data-name="Haken neu"><circle class="cls-2" cx="298.67" cy="298.67" r="298.67"/><polygon class="cls-3" points="141.82 445.85 151.6 465.68 175.32 465.67 173.64 469.62 159.29 484.14 163.68 508.09 141.73 496.66 120.75 508.09 125.49 484.73 109.26 468.72 108.4 465.67 132.04 465.68 141.82 445.85"/><polygon class="cls-3" points="141.82 492.65 122.65 502.72 126.32 481.37 110.79 466.26 132.25 463.15 141.82 443.72 151.4 463.15 172.85 466.26 157.32 481.37 161 502.72 141.82 492.65"/><path class="cls-3" d="M141.82,445.33l9.1,18.47,20.39,3-14.76,14.37,3.49,20.3-18.23-9.58-18.22,9.58,3.49-20.3-14.76-14.37,20.39-3,9.11-18.47m0-3.22-1.28,2.59-8.78,17.79-19.65,2.85-2.86.42,2.07,2,14.22,13.84-3.36,19.56-.49,2.84,2.56-1.34,17.56-9.24,17.57,9.24,2.55,1.34-.48-2.84-3.37-19.56,14.22-13.84,2.07-2-2.86-.42-19.65-2.85-8.77-17.79-1.28-2.59h0Z"/><path class="cls-3" d="M133.59,466c-1.32.66-16.9.17-16.9.17L132.64,464l7-14.19S134.77,465.4,133.59,466Z"/><path class="cls-3" d="M149.73,465.4c-1-.93-6.06-16.3-6.06-16.3l7.24,14.78,15.47,2.2s-15.68.22-16.65-.67Z"/><g class="cls-4"><path class="cls-3" d="M141.73,445.11l9.11,18.47,20.38,2.95a54.24,54.24,0,0,1-6.54,6.3c-5.41,4.39-18.56,6.68-22.56,6.76-5,.11-23-6.17-23-6.17l-6.89-6.9,20.38-2.95,9.11-18.47Z"/></g><polygon class="cls-3" points="216.9 488.8 226.68 508.63 250.39 508.62 248.72 512.58 234.37 527.09 238.76 551.04 216.81 539.61 195.82 551.04 200.56 527.68 184.34 511.67 183.48 508.62 207.11 508.63 216.9 488.8"/><polygon class="cls-3" points="216.9 535.6 197.73 545.67 201.39 524.32 185.87 509.21 207.32 506.1 216.9 486.67 226.48 506.1 247.93 509.21 232.4 524.32 236.08 545.67 216.9 535.6"/><path class="cls-3" d="M216.9,488.28l9.1,18.47,20.4,3-14.76,14.37,3.5,20.3-18.23-9.58-18.22,9.58,3.49-20.3-14.76-14.37,20.39-3,9.11-18.47m0-3.22-1.28,2.59-8.77,17.8-19.65,2.85-2.86.41,2.07,2,14.22,13.85-3.36,19.56-.48,2.84,2.55-1.34,17.56-9.23,17.57,9.23L237,547l-.49-2.84-3.37-19.56,14.22-13.85,2.07-2-2.86-.41L227,505.45l-8.77-17.8-1.28-2.59h0Z"/><path class="cls-3" d="M208.66,508.94c-1.33.66-16.9.17-16.9.17l16-2.12,7-14.19S209.84,508.35,208.66,508.94Z"/><path class="cls-3" d="M224.8,508.34c-1-.93-6.06-16.3-6.06-16.3L226,506.82,241.45,509s-15.68.22-16.65-.67Z"/><g class="cls-4"><path class="cls-3" d="M216.81,488.06l9.11,18.47,20.38,3a54.74,54.74,0,0,1-6.54,6.31c-5.41,4.39-18.57,6.68-22.57,6.76-5,.11-23-6.17-23-6.17l-6.89-6.9,20.39-3,9.11-18.47Z"/></g><polygon class="cls-3" points="299.69 500.07 309.47 519.9 333.18 519.89 331.51 523.84 317.16 538.35 321.55 562.31 299.6 550.88 278.62 562.31 283.35 538.95 267.13 522.94 266.27 519.89 289.9 519.9 299.69 500.07"/><polygon class="cls-3" points="299.69 546.86 280.52 556.94 284.19 535.59 268.66 520.48 290.11 517.37 299.69 497.94 309.27 517.37 330.72 520.48 315.19 535.59 318.87 556.94 299.69 546.86"/><path class="cls-3" d="M299.69,499.55l9.1,18.47,20.39,3-14.76,14.37,3.5,20.3-18.23-9.57-18.22,9.57,3.49-20.3L270.2,521l20.39-3,9.11-18.47m0-3.22-1.28,2.59-8.78,17.8L270,519.57l-2.86.41,2.08,2,14.23,13.84-3.36,19.56-.49,2.84,2.55-1.34,17.56-9.23,17.57,9.23,2.56,1.34-.49-2.84L316,535.83,330.19,522l2.07-2-2.86-.41-19.65-2.85L301,498.92l-1.28-2.59Z"/><path class="cls-3" d="M291.46,520.21c-1.32.66-16.9.17-16.9.17l16-2.12,7-14.19S292.64,519.62,291.46,520.21Z"/><path class="cls-3" d="M307.6,519.61c-1-.92-6.06-16.3-6.06-16.3l7.24,14.78,15.46,2.2s-15.67.22-16.64-.68Z"/><g class="cls-4"><path class="cls-3" d="M299.6,499.32l9.11,18.47,20.38,3a55.14,55.14,0,0,1-6.54,6.3c-5.41,4.39-18.56,6.68-22.56,6.76-5,.11-23-6.17-23-6.17l-6.9-6.9,20.39-3,9.1-18.47Z"/></g><polygon class="cls-3" points="384.69 487.31 394.47 507.15 418.18 507.13 416.51 511.09 402.16 525.61 406.55 549.56 384.6 538.13 363.61 549.56 368.35 526.19 352.13 510.19 351.27 507.13 374.9 507.15 384.69 487.31"/><polygon class="cls-3" points="384.69 534.11 365.52 544.19 369.18 522.84 353.66 507.73 375.11 504.62 384.69 485.19 394.27 504.62 415.72 507.73 400.19 522.84 403.87 544.19 384.69 534.11"/><path class="cls-3" d="M384.69,486.8l9.1,18.47,20.39,3-14.76,14.36,3.5,20.3-18.23-9.57-18.23,9.57,3.49-20.3-14.77-14.36,20.39-3,9.11-18.47m0-3.22-1.28,2.59L374.63,504,355,506.81l-2.85.42,2.07,2,14.22,13.85-3.36,19.56-.49,2.84,2.55-1.34,17.56-9.23,17.57,9.23,2.55,1.34-.49-2.84-3.37-19.56,14.22-13.85,2.08-2-2.86-.42L394.73,504,386,486.17l-1.28-2.59h0Z"/><path class="cls-3" d="M376.46,507.45c-1.33.66-16.9.17-16.9.17l16-2.11,7-14.19s-4.9,15.54-6.08,16.14Z"/><path class="cls-3" d="M392.6,506.86c-1-.93-6.06-16.3-6.06-16.3l7.24,14.78,15.47,2.2s-15.68.21-16.65-.68Z"/><g class="cls-4"><path class="cls-3" d="M384.6,486.57,393.71,505l20.38,3a56.1,56.1,0,0,1-6.54,6.3C402.14,518.7,389,521,385,521.06c-5,.1-23-6.17-23-6.17L355.1,508l20.38-3,9.11-18.47Z"/></g><polygon class="cls-3" points="455.45 447.72 465.22 467.55 488.94 467.55 487.26 471.49 472.91 486 477.3 509.96 455.36 498.53 434.37 509.96 439.11 486.6 422.88 470.59 422.02 467.55 445.66 467.55 455.45 447.72"/><polygon class="cls-3" points="455.45 494.52 436.27 504.59 439.94 483.24 424.41 468.13 445.87 465.02 455.45 445.59 465.02 465.02 486.47 468.13 470.95 483.24 474.62 504.59 455.45 494.52"/><path class="cls-3" d="M455.45,447.2l9.11,18.47L485,468.62,470.19,483l3.5,20.3-18.23-9.58-18.23,9.58,3.49-20.3L426,468.62l20.4-2.95,9.1-18.47m0-3.22-1.28,2.59-8.78,17.8-19.64,2.85-2.86.41,2.07,2,14.22,13.85-3.36,19.56-.49,2.85,2.55-1.34,17.56-9.23L473,504.56l2.56,1.34-.49-2.85-3.38-19.56,14.22-13.85,2.08-2-2.86-.41-19.65-2.85-8.77-17.8L455.44,444h0Z"/><path class="cls-3" d="M447.21,467.86c-1.32.65-16.9.17-16.9.17l16-2.13,7-14.19s-4.9,15.55-6.08,16.14Z"/><path class="cls-3" d="M463.35,467.27c-1-.93-6.06-16.3-6.06-16.3l7.24,14.78L480,468s-15.68.22-16.66-.67Z"/><g class="cls-4"><path class="cls-3" d="M455.36,447l9.11,18.47,20.39,2.95a55.75,55.75,0,0,1-6.55,6.3c-5.41,4.39-18.56,6.68-22.57,6.76-5,.11-23-6.17-23-6.17l-6.9-6.89,20.38-2.95L455.35,447Z"/></g><path class="cls-5" d="M471.56,298.67A172.89,172.89,0,1,1,298.67,125.78,172.88,172.88,0,0,1,471.56,298.67Z"/><g class="cls-6"><rect class="cls-5" x="125.77" y="125.78" width="345.79" height="345.78"/><path class="cls-5" d="M477.74,228.69V407.22h1.52a252.6,252.6,0,0,1-387.9-37.37h28.25V119.6H477.75V228.69Z"/><path class="cls-5" d="M477.74,228.69V405.83h.12A250.65,250.65,0,0,1,93,368.76H119.6V119.6H477.74Z"/><path class="cls-5" d="M477.74,228.69v139h29.08a248.67,248.67,0,0,1-412.18,0h25V119.6H477.75V228.69Z"/><path class="cls-5" d="M477.74,228.69V366.54h27.45a246.7,246.7,0,0,1-408.93,0H119.6V119.6H477.74V228.69Z"/><path class="cls-5" d="M477.74,228.69V365.44h25.8a244.65,244.65,0,0,1-405.62,0h21.69V119.6H477.75V228.69Z"/><path class="cls-5" d="M477.74,228.69V364.34h24.17A242.77,242.77,0,0,1,77.17,323.12H119.6V119.6H477.74Z"/><path class="cls-5" d="M477.74,228.69V363.24h22.54A240.81,240.81,0,0,1,79,322.36h40.62V119.6H477.73V228.69Z"/><path class="cls-5" d="M477.74,228.69v92.9h42.91a238.82,238.82,0,0,1-439.85,0h38.8v-202H477.74V228.69Z"/><path class="cls-5" d="M477.74,228.69v92.13h41.09a236.85,236.85,0,0,1-436.22,0h37V119.6H477.73V228.69Z"/><path class="cls-5" d="M477.74,228.69v91.36H517a234.88,234.88,0,0,1-432.59,0H119.6V119.6H477.74Z"/><path class="cls-5" d="M477.74,228.69v90.59H515.2a232.89,232.89,0,0,1-428.94,0h33.35V119.6H477.75V228.69Z"/><path class="cls-5" d="M477.74,228.69v89.83h35.64a230.93,230.93,0,0,1-425.31,0H119.6V119.6H477.74Z"/><path class="cls-5" d="M477.74,228.69v89.07h33.82a228.95,228.95,0,0,1-421.66,0h29.71V119.6H477.75V228.69Z"/><path class="cls-5" d="M477.74,228.69V317h32a227,227,0,0,1-418,0H119.6V119.6H477.74V228.69Z"/><path class="cls-5" d="M477.74,228.69v87.52h30.19a225,225,0,0,1-414.4,0h26.08V119.6H477.75V228.69Z"/><path class="cls-5" d="M477.74,228.69v86.76h28.37A223.14,223.14,0,0,1,300.72,451.58c-123.1,0-222.9-99.79-222.9-222.89H119.6V119.6H477.74V228.69Z"/><path class="cls-5" d="M477.74,228.69v86h26.55A221.2,221.2,0,0,1,300.72,449.61c-122,0-220.93-98.91-220.93-220.92h39.8V119.6H477.73V228.69Z"/><path class="cls-5" d="M519.68,228.69c0,120.92-98,219-219,219s-219-98-219-218.95H119.6V119.6H477.74V228.69Z"/><path class="cls-5" d="M517.71,228.69c0,119.83-97.15,217-217,217s-217-97.15-217-217H119.6V144.22H100.79a216.3,216.3,0,0,1,20-36.86V119.6H477.74V228.69Z"/><path class="cls-5" d="M515.74,228.69c0,118.75-96.26,215-215,215s-215-96.26-215-215a214.32,214.32,0,0,1,63-152v43H452.77v-43a214.34,214.34,0,0,1,63,152Z"/><path class="cls-5" d="M513.76,228.69c0,117.65-95.38,213-213,213s-213-95.38-213-213A212.41,212.41,0,0,1,150.08,78V119.6H451.35V78a212.42,212.42,0,0,1,62.4,150.65Z"/><path class="cls-5" d="M511.79,228.69c0,116.57-94.5,211.06-211.07,211.06S89.66,345.26,89.66,228.69A210.44,210.44,0,0,1,151.48,79.44V119.6H450V79.44a210.45,210.45,0,0,1,61.82,149.25Z"/><path class="cls-5" d="M509.81,228.69c0,115.48-93.61,209.09-209.09,209.09S91.63,344.17,91.63,228.69A208.45,208.45,0,0,1,152.87,80.83V119.6H448.58V80.83a208.45,208.45,0,0,1,61.24,147.86Z"/><path class="cls-5" d="M507.85,228.69c0,114.38-92.73,207.12-207.12,207.12S93.61,343.07,93.61,228.69A206.47,206.47,0,0,1,154.27,82.23V119.6H447.18V82.23A206.44,206.44,0,0,1,507.85,228.69Z"/><path class="cls-5" d="M505.87,228.69c0,113.3-91.85,205.15-205.15,205.15S95.58,342,95.58,228.69A204.5,204.5,0,0,1,155.67,83.62v36H445.78v-36a204.48,204.48,0,0,1,60.09,145.07Z"/><path class="cls-5" d="M503.9,228.69c0,112.21-91,203.17-203.18,203.17S97.54,340.9,97.54,228.69A202.55,202.55,0,0,1,157,85V119.6H444.39V85a202.51,202.51,0,0,1,59.5,143.67Z"/><path class="cls-5" d="M501.93,228.69c0,111.11-90.08,201.2-201.2,201.2S99.53,339.8,99.53,228.69A200.57,200.57,0,0,1,158.46,86.42V119.6H443V86.42a200.57,200.57,0,0,1,58.93,142.27Z"/><path class="cls-5" d="M500,228.69c0,110-89.2,199.23-199.23,199.23S101.5,338.72,101.5,228.69A198.59,198.59,0,0,1,159.85,87.82v31.79H441.61V87.82A198.59,198.59,0,0,1,500,228.69Z"/><path class="cls-5" d="M498,228.69c0,108.94-88.31,197.25-197.26,197.25S103.47,337.63,103.47,228.69A196.63,196.63,0,0,1,161.24,89.2v30.4h279V89.2A196.67,196.67,0,0,1,498,228.69Z"/><path class="cls-5" d="M496,228.69C496,336.54,408.57,424,300.72,424S105.44,336.54,105.44,228.69a194.63,194.63,0,0,1,57.2-138.08v29H438.82v-29A194.67,194.67,0,0,1,496,228.69Z"/><path class="cls-5" d="M494,228.69C494,335.45,407.48,422,300.72,422S107.41,335.45,107.41,228.69A192.68,192.68,0,0,1,164,92V119.6H437.41V92A192.68,192.68,0,0,1,494,228.69Z"/><path class="cls-5" d="M492.06,228.69C492.06,334.36,406.39,420,300.72,420S109.38,334.37,109.38,228.69a190.79,190.79,0,0,1,56-135.31V119.6H436V93.38a190.75,190.75,0,0,1,56,135.31Z"/><path class="cls-5" d="M490.09,228.69c0,104.58-84.78,189.36-189.37,189.36S111.36,333.27,111.36,228.69A188.77,188.77,0,0,1,166.82,94.78V119.6H434.63V94.78A188.77,188.77,0,0,1,490.09,228.69Z"/><path class="cls-5" d="M488.12,228.69c0,103.49-83.9,187.39-187.39,187.39s-187.4-83.9-187.4-187.39A186.82,186.82,0,0,1,168.22,96.18V119.6h265V96.18A186.82,186.82,0,0,1,488.12,228.69Z"/><path class="cls-5" d="M486.15,228.69c0,102.41-83,185.42-185.43,185.42s-185.42-83-185.42-185.42A184.88,184.88,0,0,1,169.61,97.57v22H431.84v-22a184.88,184.88,0,0,1,54.31,131.12Z"/><path class="cls-5" d="M484.18,228.69c0,101.31-82.13,183.45-183.46,183.45A183.46,183.46,0,0,1,171,99V119.6H430.44V99A182.88,182.88,0,0,1,484.18,228.69Z"/><path class="cls-5" d="M482.2,228.69c0,100.22-81.25,181.47-181.48,181.47S119.24,328.91,119.24,228.69A180.92,180.92,0,0,1,172.4,100.36v19.25H429V100.36A181,181,0,0,1,482.2,228.69Z"/><path class="cls-5" d="M480.23,228.69A179.5,179.5,0,1,1,173.81,101.75V119.6H427.66V101.75a178.94,178.94,0,0,1,52.58,126.94Z"/><path class="cls-5" d="M478.26,228.69A177.53,177.53,0,1,1,175.2,103.15V119.6H426.26V103.15A177,177,0,0,1,478.26,228.69Z"/><path class="cls-5" d="M476.29,228.69A175.56,175.56,0,1,1,176.6,104.54V119.6H424.87V104.54A175,175,0,0,1,476.3,228.69Z"/><path class="cls-5" d="M474.31,228.69A173.59,173.59,0,1,1,178,105.94V119.6h245.5V105.94a173.05,173.05,0,0,1,50.84,122.75Z"/><path class="cls-5" d="M472.34,228.69a171.62,171.62,0,1,1-293-121.36V119.6h242.7V107.33A171.12,171.12,0,0,1,472.34,228.69Z"/><path class="cls-5" d="M470.37,228.69a169.65,169.65,0,1,1-289.6-120V119.6H420.68V108.73A169.12,169.12,0,0,1,470.37,228.69Z"/><path class="cls-5" d="M468.4,228.69A167.68,167.68,0,1,1,182.16,110.13v9.47H419.29v-9.47A167.13,167.13,0,0,1,468.4,228.69Z"/><path class="cls-5" d="M466.42,228.69A165.7,165.7,0,1,1,183.56,111.53v8.08H417.88v-8.08a165.18,165.18,0,0,1,48.54,117.16Z"/><path class="cls-5" d="M464.44,228.69A163.72,163.72,0,1,1,185,112.91v6.69H416.49v-6.69a163.27,163.27,0,0,1,47.95,115.78Z"/><path class="cls-5" d="M462.47,228.69A161.75,161.75,0,1,1,186.34,114.31v5.29H415.1v-5.29A161.23,161.23,0,0,1,462.47,228.69Z"/><path class="cls-5" d="M460.5,228.69a159.78,159.78,0,1,1-272.77-113v3.9h226v-3.9a159.27,159.27,0,0,1,46.79,113Z"/><path class="cls-5" d="M458.53,228.69A157.81,157.81,0,1,1,189.14,117.1v2.5H412.31v-2.5A157.27,157.27,0,0,1,458.53,228.69Z"/><path class="cls-5" d="M456.56,228.69a155.84,155.84,0,1,1-266-110.2v1.11H410.92v-1.11A155.35,155.35,0,0,1,456.56,228.69Z"/><path class="cls-5" d="M454.59,228.69A153.81,153.81,0,1,1,240.85,86.91V119.6H360.63V86.91a154,154,0,0,1,94,141.78Z"/><path class="cls-5" d="M452.61,228.69A151.89,151.89,0,1,1,300.72,76.8,151.9,151.9,0,0,1,452.61,228.69Z"/><path class="cls-5" d="M450.64,228.69A149.91,149.91,0,1,1,300.73,78.77,149.91,149.91,0,0,1,450.64,228.69Z"/><path class="cls-5" d="M448.66,228.69A147.94,147.94,0,1,1,300.72,80.75,147.94,147.94,0,0,1,448.66,228.69Z"/><circle class="cls-5" cx="300.72" cy="228.69" r="145.97" transform="translate(-73.63 279.62) rotate(-45)"/><path class="cls-5" d="M444.72,228.69a144,144,0,1,1-144-144A144,144,0,0,1,444.72,228.69Z"/><path class="cls-5" d="M442.75,228.69a142,142,0,1,1-142-142A142,142,0,0,1,442.75,228.69Z"/><path class="cls-5" d="M440.78,228.69A140.06,140.06,0,1,1,300.72,88.63,140.06,140.06,0,0,1,440.78,228.69Z"/><path class="cls-5" d="M438.81,228.69A138.09,138.09,0,1,1,300.72,90.61,138.08,138.08,0,0,1,438.81,228.69Z"/><path class="cls-5" d="M436.83,228.69A136.11,136.11,0,1,1,300.72,92.58,136.11,136.11,0,0,1,436.83,228.69Z"/><path class="cls-5" d="M434.86,228.69A134.13,134.13,0,1,1,300.73,94.56,134.13,134.13,0,0,1,434.86,228.69Z"/><path class="cls-5" d="M432.88,228.69A132.16,132.16,0,1,1,300.72,96.53,132.15,132.15,0,0,1,432.88,228.69Z"/><path class="cls-5" d="M430.91,228.69A130.19,130.19,0,1,1,300.72,98.5,130.18,130.18,0,0,1,430.91,228.69Z"/><path class="cls-5" d="M428.94,228.69A128.22,128.22,0,1,1,300.72,100.47,128.22,128.22,0,0,1,428.94,228.69Z"/><path class="cls-5" d="M427,228.69A126.25,126.25,0,1,1,300.72,102.44,126.24,126.24,0,0,1,427,228.69Z"/><path class="cls-5" d="M425,228.69A124.28,124.28,0,1,1,300.72,104.41,124.28,124.28,0,0,1,425,228.69Z"/><path class="cls-5" d="M423,228.69a122.31,122.31,0,1,1-122.31-122.3A122.31,122.31,0,0,1,423,228.69Z"/><path class="cls-5" d="M421.06,228.69A120.34,120.34,0,1,1,300.72,108.35,120.34,120.34,0,0,1,421.06,228.69Z"/><path class="cls-5" d="M419.08,228.69A118.36,118.36,0,1,1,300.72,110.33,118.36,118.36,0,0,1,419.08,228.69Z"/><path class="cls-5" d="M417.11,228.69A116.38,116.38,0,1,1,300.73,112.3,116.38,116.38,0,0,1,417.11,228.69Z"/><path class="cls-5" d="M415.13,228.69A114.41,114.41,0,1,1,300.72,114.28,114.41,114.41,0,0,1,415.13,228.69Z"/><path class="cls-5" d="M413.16,228.69A112.44,112.44,0,1,1,300.72,116.25,112.44,112.44,0,0,1,413.16,228.69Z"/><path class="cls-5" d="M411.19,228.69A110.47,110.47,0,1,1,300.72,118.22,110.47,110.47,0,0,1,411.19,228.69Z"/><path class="cls-5" d="M409.22,228.69a108.5,108.5,0,1,1-108.5-108.5A108.5,108.5,0,0,1,409.22,228.69Z"/><path class="cls-5" d="M407.24,228.69A106.52,106.52,0,1,1,300.72,122.16,106.52,106.52,0,0,1,407.24,228.69Z"/><path class="cls-5" d="M405.27,228.69A104.55,104.55,0,1,1,300.72,124.14,104.55,104.55,0,0,1,405.27,228.69Z"/><path class="cls-5" d="M403.29,228.69A102.57,102.57,0,1,1,300.72,126.12,102.56,102.56,0,0,1,403.29,228.69Z"/><path class="cls-5" d="M401.32,228.69a100.6,100.6,0,1,1-100.6-100.6A100.6,100.6,0,0,1,401.32,228.69Z"/><path class="cls-5" d="M399.35,228.69a98.63,98.63,0,1,1-98.63-98.63A98.64,98.64,0,0,1,399.35,228.69Z"/><path class="cls-5" d="M397.38,228.69A96.66,96.66,0,1,1,300.72,132,96.65,96.65,0,0,1,397.38,228.69Z"/><path class="cls-5" d="M395.41,228.69A94.68,94.68,0,1,1,300.73,134,94.68,94.68,0,0,1,395.41,228.69Z"/><path class="cls-5" d="M393.44,228.69A92.72,92.72,0,1,1,300.72,136,92.72,92.72,0,0,1,393.44,228.69Z"/><path class="cls-5" d="M391.47,228.69A90.74,90.74,0,1,1,300.73,138,90.75,90.75,0,0,1,391.47,228.69Z"/><path class="cls-5" d="M389.49,228.69a88.77,88.77,0,1,1-88.77-88.77A88.77,88.77,0,0,1,389.49,228.69Z"/><path class="cls-5" d="M387.51,228.69a86.79,86.79,0,1,1-86.79-86.8A86.79,86.79,0,0,1,387.51,228.69Z"/><path class="cls-5" d="M385.55,228.69a84.82,84.82,0,1,1-84.82-84.82A84.81,84.81,0,0,1,385.55,228.69Z"/><path class="cls-5" d="M383.57,228.69a82.85,82.85,0,1,1-82.85-82.85A82.84,82.84,0,0,1,383.57,228.69Z"/><path class="cls-5" d="M381.6,228.69a80.88,80.88,0,1,1-80.88-80.88A80.88,80.88,0,0,1,381.6,228.69Z"/><path class="cls-5" d="M379.63,228.69a78.91,78.91,0,1,1-78.91-78.91A78.91,78.91,0,0,1,379.63,228.69Z"/><path class="cls-5" d="M377.66,228.69a76.94,76.94,0,1,1-76.94-76.94A76.94,76.94,0,0,1,377.66,228.69Z"/><path class="cls-5" d="M375.69,228.69a75,75,0,1,1-75-75A75,75,0,0,1,375.69,228.69Z"/><path class="cls-5" d="M373.71,228.69a73,73,0,1,1-73-73A73,73,0,0,1,373.71,228.69Z"/><path class="cls-5" d="M371.73,228.69a71,71,0,1,1-71-71A71,71,0,0,1,371.73,228.69Z"/><path class="cls-5" d="M369.77,228.69a69,69,0,1,1-69-69A69,69,0,0,1,369.77,228.69Z"/><path class="cls-5" d="M367.79,228.69a67.07,67.07,0,1,1-67.07-67.07A67.06,67.06,0,0,1,367.79,228.69Z"/><path class="cls-5" d="M365.82,228.69a65.09,65.09,0,1,1-65.09-65.1A65.09,65.09,0,0,1,365.82,228.69Z"/><path class="cls-5" d="M363.85,228.69a63.13,63.13,0,1,1-63.13-63.13A63.12,63.12,0,0,1,363.85,228.69Z"/><path class="cls-5" d="M361.88,228.69a61.16,61.16,0,1,1-61.16-61.16A61.15,61.15,0,0,1,361.88,228.69Z"/><path class="cls-5" d="M359.91,228.69a59.18,59.18,0,1,1-59.18-59.19A59.18,59.18,0,0,1,359.91,228.69Z"/><path class="cls-5" d="M357.93,228.69a57.21,57.21,0,1,1-57.21-57.21A57.2,57.2,0,0,1,357.93,228.69Z"/><path class="cls-5" d="M356,228.69a55.23,55.23,0,1,1-55.23-55.24A55.23,55.23,0,0,1,356,228.69Z"/><path class="cls-5" d="M354,228.69a53.26,53.26,0,1,1-53.26-53.26A53.26,53.26,0,0,1,354,228.69Z"/><path class="cls-5" d="M352,228.69a51.29,51.29,0,1,1-51.29-51.29A51.28,51.28,0,0,1,352,228.69Z"/><path class="cls-5" d="M350,228.69a49.31,49.31,0,1,1-49.31-49.32A49.3,49.3,0,0,1,350,228.69Z"/><path class="cls-5" d="M348.07,228.69a47.34,47.34,0,1,1-47.34-47.34A47.35,47.35,0,0,1,348.07,228.69Z"/><path class="cls-5" d="M346.09,228.69a45.37,45.37,0,1,1-45.37-45.37A45.38,45.38,0,0,1,346.09,228.69Z"/><path class="cls-5" d="M344.12,228.69a43.4,43.4,0,1,1-43.4-43.4A43.41,43.41,0,0,1,344.12,228.69Z"/><path class="cls-5" d="M342.15,228.69a41.43,41.43,0,1,1-41.43-41.43A41.43,41.43,0,0,1,342.15,228.69Z"/><path class="cls-5" d="M340.17,228.69a39.45,39.45,0,1,1-39.45-39.45A39.45,39.45,0,0,1,340.17,228.69Z"/><path class="cls-5" d="M338.2,228.69a37.48,37.48,0,1,1-37.48-37.48A37.46,37.46,0,0,1,338.2,228.69Z"/><path class="cls-5" d="M336.23,228.69a35.51,35.51,0,1,1-35.51-35.51A35.5,35.5,0,0,1,336.23,228.69Z"/><path class="cls-5" d="M334.26,228.69a33.53,33.53,0,1,1-33.53-33.54A33.53,33.53,0,0,1,334.26,228.69Z"/><path class="cls-5" d="M332.29,228.69a31.56,31.56,0,1,1-31.56-31.57A31.55,31.55,0,0,1,332.29,228.69Z"/><path class="cls-5" d="M330.32,228.69a29.59,29.59,0,1,1-29.59-29.6A29.59,29.59,0,0,1,330.32,228.69Z"/><path class="cls-5" d="M328.34,228.69a27.62,27.62,0,1,1-27.62-27.62A27.62,27.62,0,0,1,328.34,228.69Z"/><path class="cls-5" d="M326.37,228.69A25.65,25.65,0,1,1,300.72,203,25.65,25.65,0,0,1,326.37,228.69Z"/><path class="cls-5" d="M324.4,228.69A23.67,23.67,0,1,1,300.73,205,23.66,23.66,0,0,1,324.4,228.69Z"/><path class="cls-5" d="M322.42,228.69a21.7,21.7,0,1,1-21.7-21.7A21.7,21.7,0,0,1,322.42,228.69Z"/><path class="cls-5" d="M320.45,228.69A19.73,19.73,0,1,1,300.72,209,19.72,19.72,0,0,1,320.45,228.69Z"/><path class="cls-5" d="M318.47,228.69a17.75,17.75,0,1,1-17.75-17.76A17.75,17.75,0,0,1,318.47,228.69Z"/><path class="cls-5" d="M316.51,228.69a15.78,15.78,0,1,1-15.78-15.78A15.79,15.79,0,0,1,316.51,228.69Z"/><path class="cls-5" d="M314.53,228.69a13.81,13.81,0,1,1-13.81-13.82A13.81,13.81,0,0,1,314.53,228.69Z"/><path class="cls-5" d="M312.56,228.69a11.84,11.84,0,1,1-11.84-11.84A11.83,11.83,0,0,1,312.56,228.69Z"/><path class="cls-5" d="M310.58,228.69a9.86,9.86,0,1,1-9.86-9.86A9.86,9.86,0,0,1,310.58,228.69Z"/><path class="cls-5" d="M308.61,228.69a7.89,7.89,0,1,1-7.89-7.89A7.89,7.89,0,0,1,308.61,228.69Z"/><path class="cls-5" d="M306.64,228.69a5.91,5.91,0,1,1-5.91-5.92A5.9,5.9,0,0,1,306.64,228.69Z"/><path class="cls-5" d="M304.66,228.69a3.94,3.94,0,1,1-3.94-3.94A3.94,3.94,0,0,1,304.66,228.69Z"/><path class="cls-5" d="M302.69,228.69a2,2,0,1,1-2-2A2,2,0,0,1,302.69,228.69Z"/></g><path class="cls-7" d="M376.75,190.28c-1.15,1.11-2.34,2.32-3.56,3.59-18,15.9-42.56,48.24-58.88,75A356.8,356.8,0,0,0,295,305.37h0c-2.94,6.15-10.28,21.33-16,33.12-7-12.08-18.24-27.34-19.16-27.19h0c-1.67-2.43-3.42-4.82-5.27-7.08-9.27-11.37-19-19.78-29.65-21.26l-.07,0c-10.81-3.86-59,17.42-46.91,23.17a168,168,0,0,1,24,14.63c9.58,7.39,17.39,15.24,28,35.73,11.47,22.1,16,39,19.28,48.08h0s9.24,34.12,28,17.75A78.6,78.6,0,0,0,296.83,396h0l0-.09c.53-1.15,1-2.25,1.41-3.26l9.44-21.86h0c.6-1.36,1.2-2.78,1.77-4.32,13.94-37.3,36.59-83.1,54-109.64,8.45-12.89,21.43-27.74,32.74-40.38.15-.15,18.89-18.23,24.51-29.18s-33.3-7.29-44,3Z"/><g id="Open_Sans_Bold" data-name="Open Sans Bold" class="cls-8"><text class="cls-9" transform="matrix(-0.45, -0.89, 0.89, -0.45, 130.58, 417.62)">A</text></g><g class="cls-8"><text class="cls-10" transform="matrix(-0.17, -0.99, 0.99, -0.17, 103.55, 366.18)">U</text></g><g class="cls-8"><text class="cls-10" transform="translate(93.61 302.8) rotate(-84.21)">S</text></g><g class="cls-8"><text class="cls-10" transform="translate(96.77 256.84) rotate(-69.26)">G</text></g><g class="cls-8"><text class="cls-10" transform="matrix(0.59, -0.81, 0.81, 0.59, 118.92, 199.64)">E</text></g><g class="cls-8"><text class="cls-10" transform="matrix(0.76, -0.65, 0.65, 0.76, 146.16, 161.24)">Z</text></g><g class="cls-8"><text class="cls-10" transform="matrix(0.89, -0.46, 0.46, 0.89, 183, 129.23)">E</text></g><g class="cls-8"><text class="cls-10" transform="translate(225.59 108) rotate(-16.77)">I</text></g><g class="cls-8"><text class="cls-10" transform="translate(250.99 98.62) rotate(-5.32)">C</text></g><g class="cls-8"><text class="cls-10" transform="translate(304.19 92.29) rotate(11.13)">H</text></g><g class="cls-8"><text class="cls-10" transform="matrix(0.87, 0.5, -0.5, 0.87, 367.79, 103.71)">N</text></g><g class="cls-8"><text class="cls-10" transform="translate(427.25 138.83) rotate(45.96)">E</text></g><g class="cls-8"><text class="cls-11" transform="matrix(0.51, 0.86, -0.86, 0.51, 460.34, 172.36)">T</text></g><g class="cls-8"><text class="cls-10" transform="translate(484.79 215.26) rotate(69.46)">.</text></g><g class="cls-8"><text class="cls-10" transform="translate(495.48 235.53) rotate(82.26)">O</text></g><g class="cls-8"><text class="cls-10" transform="translate(504.27 302.41) rotate(99.35)">R</text></g><g class="cls-8"><text class="cls-10" transform="translate(496.21 357.41) rotate(115.61)">G</text></g></g></g></g></svg>